<?xml version="1.0" encoding="UTF-8"?>
<svg id="Layer_1" data-name="Layer 1" xmlns="http://www.w3.org/2000/svg" viewBox="0 0 1500 1500">
  <defs>
    <style>
      .cls-1 {
        fill: none;
        stroke: #cf0600;
        stroke-miterlimit: 10;
        stroke-width: 15px;
      }

      .cls-2, .cls-3, .cls-4, .cls-5, .cls-6 {
        stroke-width: 0px;
      }

      .cls-2, .cls-7 {
        fill: #cf0600;
      }

      .cls-3 {
        fill: #603913;
      }

      .cls-8 {
        font-family: RobotoSlab-Medium, 'Roboto Slab';
        font-size: 100px;
        font-weight: 500;
      }

      .cls-8, .cls-4 {
        fill: #00469b;
      }

      .cls-5 {
        fill: #fff;
      }

      .cls-9 {
        letter-spacing: -.01em;
      }

      .cls-7 {
        font-family: RobotoSlab-Black, 'Roboto Slab';
        font-size: 144.23px;
        font-weight: 800;
        letter-spacing: -.02em;
      }

      .cls-6 {
        fill: #3c2415;
      }

      .cls-10 {
        letter-spacing: -.02em;
      }
    </style>
  </defs>
  <g>
    <path class="cls-4" d="m429.01,616.97c4.5,2.5,9.31,4.59,13.43,7.6,4.33,3.17,7.71,2.62,11.93-.13,6.77-4.4,13.81-8.43,21.01-12.11,1.73-.88,5.35-.64,6.65.61,11.65,11.16,22.96,22.67,34.4,34.05,2.83,2.82,3.14,5.42.81,9.02-4.59,7.13-8.83,14.51-12.73,22.03-.98,1.9-.9,5.01-.08,7.07,6.08,15.12,12.64,30.06,18.64,45.21,1.33,3.36,2.76,5.36,6.37,6.2,8.07,1.88,16.03,4.25,24.09,6.2,3.34.81,5.44,2.17,5.41,5.95-.13,16.52-.06,33.05-.45,49.56-.04,1.63-2.38,4.08-4.14,4.64-8.08,2.59-16.3,4.76-24.53,6.83-3.67.93-5.46,2.78-6.9,6.49-5.82,15.01-12.39,29.73-18.31,44.7-.93,2.34-.82,5.88.31,8.09,3.85,7.55,8.27,14.82,12.7,22.06,1.73,2.83,1.91,4.99-.57,7.45-11.6,11.51-23.14,23.07-34.63,34.68-2.64,2.67-5.06,2.42-8.07.57-7.06-4.35-14.34-8.33-21.37-12.72-3.08-1.92-5.49-1.86-8.9-.35-14.74,6.53-29.76,12.41-44.51,18.92-2.51,1.11-5.2,3.76-6.06,6.3-2.65,7.82-4.2,16.02-6.78,23.88-.69,2.1-3.47,4.97-5.35,5.01-16.54.4-33.1.39-49.64.05-1.77-.04-4.44-2.59-5.06-4.5-2.65-8.26-4.4-16.81-7.13-25.03-.77-2.33-3.41-4.71-5.77-5.74-14.77-6.45-29.79-12.33-44.52-18.85-3.4-1.51-5.76-1.68-8.87.26-7.03,4.39-14.35,8.31-21.39,12.68-2.99,1.85-5.46,2.23-8.08-.4-11.64-11.75-23.4-23.39-34.84-35.33-1.14-1.19-1.27-4.59-.42-6.21,4.13-7.87,8.97-15.36,13.04-23.25,1.04-2.03,1.15-5.59.05-7.49-8.27-14.26-14.4-29.32-18.86-45.17-.65-2.32-3.44-4.92-5.8-5.7-8.23-2.74-16.78-4.53-25.05-7.19-1.9-.61-4.45-3.22-4.48-4.96-.33-16.53-.15-33.07-.2-49.6-.01-3.6,2.08-4.77,5.13-5.54,8.24-2.06,16.52-4.03,24.58-6.65,2.36-.77,5.21-3.28,5.83-5.55,4.45-16.07,10.8-31.26,19.06-45.74,1-1.76.78-5.07-.21-6.95-4.13-7.87-8.94-15.37-13.07-23.24-.85-1.62-.73-5.01.4-6.2,11.4-11.96,23.14-23.62,34.72-35.41,2.6-2.65,4.95-2.47,8-.57,7.2,4.49,14.47,8.93,22.02,12.79,2.16,1.1,5.72.96,8.04-.02,5.28-2.24,10.18-5.35,15.24-8.11.35.38.7.76,1.06,1.14-2.9,4.43-5.89,8.81-8.7,13.29-14.27,22.76-30.27,44.65-42.36,68.51-22.7,44.79-22.59,89.94,5.64,133.01,17.7,27.01,43.07,44.21,73.93,52.76,44.62,12.36,87.3,7.32,126.01-18.81,48.69-32.85,67.35-92.06,47.94-147.72-8.76-25.11-23.78-46.72-38.05-68.76-7.02-10.84-14.33-21.5-21.5-32.24.3-.46.6-.92.91-1.38Zm-184.51,261.23c62.61,68.96,170.81,61.48,223.94.34-68.45,58.59-168.05,49.44-223.94-.34Z"/>
    <path class="cls-2" d="m356.67,524.88c2.66,4.97,4.81,8.77,6.76,12.66,21.14,42.21,47.37,81.29,73.59,120.41,13.37,19.94,26.86,39.88,35.46,62.6,22.87,60.44-5.05,125.11-65.83,147.31-52.21,19.07-101.51,12.33-142.16-27.67-30.67-30.18-37.72-68-26.96-109.23,6.5-24.9,20.92-45.82,34.78-66.92,25.29-38.5,51.93-76.14,72.88-117.32,3.54-6.95,7.26-13.81,11.49-21.84Zm.25,50.77c-1.8,2.66-2.83,4.11-3.77,5.6-17.53,27.61-35.28,55.08-52.49,82.88-12.52,20.23-26.38,39.98-36.04,61.55-20.08,44.86-2.66,93.1,39.77,115.65,23.75,12.62,49.06,15.31,75.4,10.44,48.33-8.94,80.39-49.31,76.58-96.81-1.8-22.46-11.91-41.71-23.81-60.19-21.64-33.62-43.43-67.14-65.05-100.77-3.57-5.56-6.63-11.45-10.6-18.35Z"/>
    <path class="cls-5" d="m244.5,878.2c55.89,49.78,155.49,58.93,223.94.34-53.13,61.13-161.33,68.62-223.94-.34Z"/>
    <path class="cls-3" d="m446.64,750.1c3.37,25.17-2.39,47.18-19.19,65.57-21.93,24-50.28,31.52-81.59,28.46-34.01-3.32-60.61-19.01-74.34-51.35-7.95-18.73-7.07-16.37,6.48-29.43,3.46-3.33,7.51-6.17,11.64-8.66,18.52-11.17,31.38-10.25,48.41,3.18,8.56,6.75,16.58,14.34,25.73,20.17,22.19,14.13,43.91,11.94,63.2-6.04,6.87-6.41,12.64-14,19.67-21.9Z"/>
    <path class="cls-6" d="m369.32,770.7c12.2-9.73,24.12-18.94,35.71-28.56,9.51-7.9,20.04-11.87,32.45-10.29,3.37.43,6.41,1.31,4.13,5.66-8.62,16.39-19.29,31.02-37.32,37.96-12.57,4.83-24.49,2.04-34.96-4.77Z"/>
  </g>
  <text transform="translate(632.87 764.14)"><tspan class="cls-7"><tspan x="0" y="0">ESQUIVEL</tspan></tspan><tspan class="cls-8"><tspan class="cls-10" x="0" y="102">ECOP</tspan><tspan class="cls-9" x="252.45" y="102">E</tspan><tspan class="cls-10" x="315.24" y="102">TRO</tspan></tspan></text>
  <line class="cls-1" x1="591.32" y1="905.64" x2="591.32" y2="594.36"/>
</svg>