<?xml version="1.0" encoding="UTF-8"?>
<svg id="Layer_1" data-name="Layer 1" xmlns="http://www.w3.org/2000/svg" viewBox="0 0 1500 1500">
  <defs>
    <style>
      .cls-1 {
        fill: #cf0600;
      }

      .cls-1, .cls-2, .cls-3, .cls-4, .cls-5 {
        stroke-width: 0px;
      }

      .cls-2 {
        fill: #603913;
      }

      .cls-3 {
        fill: #00469b;
      }

      .cls-4 {
        fill: #fff;
      }

      .cls-5 {
        fill: #3c2415;
      }
    </style>
  </defs>
  <path class="cls-3" d="m856.55,554.08c6.63,3.68,13.71,6.76,19.78,11.2,6.38,4.66,11.35,3.85,17.57-.19,9.97-6.48,20.34-12.42,30.94-17.83,2.55-1.3,7.88-.94,9.79.89,17.16,16.44,33.82,33.39,50.66,50.15,4.17,4.15,4.62,7.98,1.2,13.28-6.77,10.49-13,21.37-18.75,32.45-1.45,2.79-1.33,7.38-.11,10.41,8.95,22.27,18.61,44.27,27.46,66.58,1.96,4.95,4.07,7.89,9.39,9.13,11.89,2.77,23.61,6.27,35.47,9.14,4.91,1.19,8.01,3.2,7.97,8.77-.19,24.33-.09,48.67-.66,72.99-.06,2.4-3.51,6.01-6.1,6.84-11.89,3.81-24,7.01-36.12,10.07-5.41,1.36-8.04,4.1-10.16,9.56-8.57,22.11-18.24,43.78-26.97,65.83-1.36,3.45-1.21,8.65.46,11.92,5.67,11.12,12.18,21.83,18.71,32.49,2.55,4.17,2.81,7.36-.84,10.98-17.08,16.95-34.08,33.98-51,51.08-3.89,3.93-7.46,3.57-11.88.84-10.39-6.41-21.12-12.27-31.48-18.73-4.53-2.82-8.08-2.74-13.11-.51-21.7,9.61-43.83,18.28-65.55,27.86-3.7,1.63-7.66,5.54-8.93,9.27-3.91,11.52-6.19,23.59-9.98,35.16-1.01,3.1-5.11,7.32-7.87,7.38-24.36.59-48.75.57-73.11.08-2.61-.05-6.55-3.81-7.45-6.62-3.9-12.16-6.48-24.75-10.5-36.87-1.14-3.43-5.02-6.93-8.5-8.45-21.75-9.49-43.88-18.15-65.57-27.77-5.01-2.22-8.49-2.48-13.07.38-10.35,6.46-21.13,12.25-31.5,18.67-4.41,2.73-8.04,3.29-11.89-.6-17.15-17.3-34.46-34.45-51.31-52.03-1.68-1.75-1.86-6.77-.61-9.15,6.08-11.58,13.21-22.62,19.2-34.25,1.54-2.98,1.7-8.23.07-11.03-12.18-21-21.2-43.19-27.77-66.53-.96-3.41-5.07-7.24-8.54-8.4-12.13-4.04-24.72-6.68-36.89-10.59-2.79-.9-6.55-4.75-6.6-7.3-.49-24.34-.22-48.7-.3-73.05-.02-5.3,3.07-7.03,7.56-8.15,12.13-3.04,24.33-5.93,36.2-9.79,3.47-1.13,7.67-4.83,8.59-8.17,6.56-23.66,15.9-46.04,28.07-67.36,1.48-2.59,1.15-7.46-.31-10.24-6.08-11.58-13.16-22.64-19.25-34.22-1.25-2.38-1.08-7.38.59-9.13,16.8-17.62,34.07-34.78,51.13-52.16,3.83-3.9,7.3-3.64,11.78-.84,10.61,6.62,21.31,13.15,32.43,18.83,3.18,1.63,8.43,1.42,11.84-.03,7.77-3.3,15-7.88,22.45-11.95.52.56,1.04,1.12,1.55,1.68-4.28,6.52-8.67,12.97-12.81,19.58-21.02,33.52-44.58,65.76-62.39,100.9-33.43,65.97-33.26,132.46,8.31,195.9,26.07,39.78,63.43,65.11,108.88,77.7,65.72,18.2,128.57,10.77,185.59-27.7,71.71-48.39,99.2-135.58,70.61-217.56-12.9-36.99-35.03-68.81-56.04-101.27-10.34-15.97-21.1-31.66-31.67-47.48.44-.68.89-1.36,1.33-2.04Zm-271.74,384.73c92.21,101.56,251.56,90.54,329.81.5-100.81,86.29-247.5,72.81-329.81-.5Z"/>
  <path class="cls-1" d="m750.01,418.45c3.92,7.32,7.08,12.91,9.95,18.65,31.13,62.16,69.76,119.72,108.38,177.34,19.69,29.37,39.56,58.73,52.22,92.2,33.68,89.02-7.43,184.26-96.96,216.95-76.9,28.08-149.5,18.16-209.38-40.75-45.17-44.44-55.55-100.15-39.71-160.87,9.57-36.67,30.82-67.48,51.22-98.55,37.24-56.7,76.48-112.14,107.34-172.79,5.21-10.24,10.69-20.33,16.92-32.16Zm.37,74.78c-2.65,3.92-4.16,6.05-5.56,8.25-25.81,40.66-51.95,81.12-77.3,122.06-18.44,29.79-38.86,58.87-53.07,90.65-29.57,66.07-3.92,137.12,58.58,170.33,34.98,18.58,72.26,22.55,111.05,15.37,71.18-13.16,118.39-72.62,112.79-142.58-2.65-33.08-17.54-61.43-35.06-88.64-31.87-49.51-63.96-98.88-95.8-148.41-5.26-8.19-9.76-16.86-15.61-27.03Z"/>
  <path class="cls-4" d="m584.81,938.81c82.32,73.31,229.01,86.79,329.81.5-78.26,90.04-237.61,101.06-329.81-.5Z"/>
  <path class="cls-2" d="m882.51,750.15c4.96,37.07-3.51,69.48-28.26,96.57-32.3,35.34-74.05,46.42-120.16,41.92-50.08-4.89-89.27-28-109.49-75.62-11.71-27.58-10.42-24.1,9.54-43.34,5.09-4.91,11.06-9.09,17.14-12.76,27.28-16.45,46.22-15.09,71.3,4.68,12.61,9.94,24.42,21.13,37.89,29.71,32.68,20.81,64.67,17.59,93.08-8.89,10.12-9.44,18.61-20.61,28.97-32.26Z"/>
  <path class="cls-5" d="m768.64,780.49c17.97-14.33,35.53-27.9,52.59-42.06,14.01-11.63,29.52-17.48,47.79-15.15,4.97.63,9.44,1.93,6.08,8.33-12.69,24.14-28.4,45.69-54.97,55.9-18.51,7.11-36.06,3-51.48-7.02Z"/>
</svg>