<svg id="visual" viewBox="0 0 1440 900" width="1440" height="900" xmlns="http://www.w3.org/2000/svg" xmlns:xlink="http://www.w3.org/1999/xlink" version="1.1"><rect x="0" y="0" width="1440" height="900" fill="#002233"></rect><path d="M0 714L34.3 693.7C68.7 673.3 137.3 632.7 205.8 627.8C274.3 623 342.7 654 411.2 649.7C479.7 645.3 548.3 605.7 617 621.8C685.7 638 754.3 710 823 724.5C891.7 739 960.3 696 1028.8 683C1097.3 670 1165.7 687 1234.2 690.5C1302.7 694 1371.3 684 1405.7 679L1440 674L1440 901L1405.7 901C1371.3 901 1302.7 901 1234.2 901C1165.7 901 1097.3 901 1028.8 901C960.3 901 891.7 901 823 901C754.3 901 685.7 901 617 901C548.3 901 479.7 901 411.2 901C342.7 901 274.3 901 205.8 901C137.3 901 68.7 901 34.3 901L0 901Z" fill="#0066FF" stroke-linecap="round" stroke-linejoin="miter"></path></svg>